<svg xmlns="http://www.w3.org/2000/svg" width="16" height="16" viewBox="0 0 16 16">
  <path id="Instagram" d="M14.592,16H1.408A1.427,1.427,0,0,1,0,14.592V7.472H3.92a3.421,3.421,0,0,0-.129.992,4.208,4.208,0,1,0,8.416,0,3.426,3.426,0,0,0-.128-.992H16v7.12A1.427,1.427,0,0,1,14.592,16ZM8,11.2a2.664,2.664,0,1,1,2.672-2.671A2.675,2.675,0,0,1,8,11.2ZM5.328,5.328H0V1.408A1.426,1.426,0,0,1,1.408,0H14.592A1.427,1.427,0,0,1,16,1.408v3.92H10.673A4.721,4.721,0,0,0,8,4.256,4.589,4.589,0,0,0,5.328,5.328Zm6.96-4.256a.553.553,0,0,0-.56.544v2.1a.568.568,0,0,0,.56.561h2.1a.553.553,0,0,0,.544-.561v-2.1a.539.539,0,0,0-.544-.544Z" transform="translate(0 0)" fill="#fff" opacity="0.3"/>
</svg>
