<svg xmlns="http://www.w3.org/2000/svg" width="15.073" height="12.672" viewBox="0 0 15.073 12.672">
  <path id="Twitter" d="M14.521,4.529a9.72,9.72,0,0,1-.781,3.713A8.533,8.533,0,0,1,5.716,13.63,8.643,8.643,0,0,1,.971,12.2c.234.02.488.04.722.04A6.083,6.083,0,0,0,5.54,10.865a3.137,3.137,0,0,1-2.89-2.22,2.849,2.849,0,0,0,1.406-.061,3.132,3.132,0,0,1-2.48-3.128v-.04a3.079,3.079,0,0,0,1.406.4A3.211,3.211,0,0,1,1.6,3.157a3.3,3.3,0,0,1,.41-1.614A8.793,8.793,0,0,0,8.39,4.893a3.066,3.066,0,0,1-.078-.726,3.153,3.153,0,0,1,3.1-3.208,3.044,3.044,0,0,1,2.245,1.009A6.205,6.205,0,0,0,15.634,1.2a3.188,3.188,0,0,1-1.367,1.755,5.451,5.451,0,0,0,1.777-.5A6.135,6.135,0,0,1,14.5,4.106,3.079,3.079,0,0,1,14.521,4.529Z" transform="translate(-0.971 -0.958)" fill="#fff" opacity="0.3"/>
</svg>
