<svg xmlns="http://www.w3.org/2000/svg" width="340.438" height="388.257" viewBox="0 0 340.438 388.257">
  <g id="Group_1506" data-name="Group 1506" transform="translate(-2154 -3901.594)">
    <ellipse id="Ellipse_75" data-name="Ellipse 75" cx="170.219" cy="9.934" rx="170.219" ry="9.934" transform="translate(2154 4269.644)" opacity="0.15"/>
    <g id="Group_1484" data-name="Group 1484" transform="translate(2193.734 3941.488)">
      <g id="Group_1482" data-name="Group 1482" transform="translate(0 18.169)">
        <g id="Group_1455" data-name="Group 1455" transform="translate(12.867 130.312)">
          <g id="Group_1454" data-name="Group 1454">
            <path id="Path_13525" data-name="Path 13525" d="M2354.326,4596.039l-.457-.5-.354-.4-.656-.749c-.427-.492-.834-.975-1.238-1.458-.8-.964-1.574-1.924-2.332-2.89-1.512-1.932-2.952-3.887-4.34-5.881a136.626,136.626,0,0,1-7.7-12.4l25.446-13.919a107.6,107.6,0,0,0,6.041,9.732c1.094,1.573,2.231,3.115,3.4,4.6.583.743,1.171,1.476,1.758,2.181l.872,1.025.418.478.282.314Z" transform="translate(-2337.252 -4557.848)" fill="none"/>
          </g>
          <path id="Path_13526" data-name="Path 13526" d="M2384.149,4590.3l-2.461,1.535c-.861-1.393-1.705-2.8-2.513-4.222l2.522-1.435C2382.485,4587.568,2383.309,4588.939,2384.149,4590.3Z" transform="translate(-2367.141 -4578.046)" fill="#3c415e" fill-rule="evenodd"/>
          <path id="Path_13527" data-name="Path 13527" d="M2400.46,4615.605l-2.346,1.705c-.967-1.32-1.9-2.668-2.81-4.027l2.411-1.612C2398.608,4613,2399.516,4614.315,2400.46,4615.605Z" transform="translate(-2378.64 -4596.222)" fill="#3c415e" fill-rule="evenodd"/>
          <path id="Path_13528" data-name="Path 13528" d="M2418.5,4639.613l-2.2,1.891c-1.076-1.251-2.106-2.527-3.115-3.82l2.29-1.781C2416.462,4637.163,2417.466,4638.406,2418.5,4639.613Z" transform="translate(-2391.392 -4613.498)" fill="#3c415e" fill-rule="evenodd"/>
        </g>
        <g id="Group_1457" data-name="Group 1457" transform="translate(2.027 109.835)">
          <g id="Group_1456" data-name="Group 1456">
            <path id="Path_13529" data-name="Path 13529" d="M2310.327,4520.905a119.3,119.3,0,0,1-6.309-13.419,99.319,99.319,0,0,1-4.532-14.526l28.278-6.45a80.656,80.656,0,0,0,8.009,20.478Z" transform="translate(-2299.486 -4486.51)" fill="none"/>
          </g>
          <path id="Path_13530" data-name="Path 13530" d="M2348.113,4507.979l-2.765.876c-.266-.779-.475-1.578-.712-2.368s-.44-1.589-.644-2.389l2.812-.714c.2.771.387,1.544.621,2.307S2347.854,4507.224,2348.113,4507.979Z" transform="translate(-2331.217 -4498.541)" fill="#3c415e" fill-rule="evenodd"/>
          <path id="Path_13531" data-name="Path 13531" d="M2357.6,4536.351l-2.671,1.132c-.319-.757-.643-1.513-.934-2.281s-.609-1.528-.877-2.308l2.725-.994c.259.753.564,1.491.85,2.236S2357.294,4535.615,2357.6,4536.351Z" transform="translate(-2337.727 -4518.871)" fill="#3c415e" fill-rule="evenodd"/>
          <path id="Path_13532" data-name="Path 13532" d="M2369.68,4563.707l-2.569,1.347-1.119-2.191-1.07-2.218,2.627-1.23,1.041,2.158Z" transform="translate(-2346.139 -4538.487)" fill="#3c415e" fill-rule="evenodd"/>
        </g>
        <g id="Group_1459" data-name="Group 1459" transform="translate(0 81.129)">
          <g id="Group_1458" data-name="Group 1458">
            <path id="Path_13533" data-name="Path 13533" d="M2294.452,4421.66c-.279-1.26-.562-2.518-.78-3.8-.114-.64-.235-1.278-.341-1.921l-.278-1.943c-.2-1.253-.314-2.711-.447-4.089-.078-.684-.085-1.431-.12-2.15s-.066-1.438-.062-2.186l.053-2.26c.017-.381.01-.744.05-1.139l.1-1.171.113-1.17c.042-.391.069-.773.143-1.181q.194-1.2.409-2.406c.037-.2.07-.4.112-.6l.149-.613.308-1.224.321-1.22c.109-.406.265-.819.4-1.227.287-.818.555-1.634.884-2.443.351-.806.713-1.61,1.085-2.407l26.036,12.781a5.3,5.3,0,0,1-.258.562c-.08.2-.131.42-.214.623a2.839,2.839,0,0,0-.115.319q-.038.179-.081.358c-.03.118-.061.236-.095.354l-.052.176c-.013.064-.019.134-.03.2-.039.27-.084.538-.138.806a2.7,2.7,0,0,0-.049.436l-.04.451-.049.451c-.024.145-.007.327-.016.488,0,.332-.014.664-.027,1s.03.714.038,1.07,0,.707.058,1.1l.111,1.155c.022.2.022.369.061.593l.093.64.18,1.282c.07.428.157.857.232,1.286.138.858.339,1.719.527,2.579Z" transform="translate(-2292.425 -4386.504)" fill="none"/>
          </g>
          <path id="Path_13534" data-name="Path 13534" d="M2341.307,4418.032l-2.85-.539.109-.634.157-.628.321-1.255a11.554,11.554,0,0,1,.391-1.238l.429-1.229,2.7,1.06-.381,1.1a9.834,9.834,0,0,0-.35,1.1l-.287,1.126-.143.563Z" transform="translate(-2325.244 -4405.044)" fill="#3c415e" fill-rule="evenodd"/>
          <path id="Path_13535" data-name="Path 13535" d="M2339.4,4448.828l-2.9.17c-.027-.841-.079-1.68-.082-2.524.025-.847.029-1.692.075-2.541l2.9.186c-.042.781-.044,1.566-.069,2.35C2339.321,4447.254,2339.371,4448.042,2339.4,4448.828Z" transform="translate(-2323.789 -4427.449)" fill="#3c415e" fill-rule="evenodd"/>
          <path id="Path_13536" data-name="Path 13536" d="M2341.7,4478.636l-2.843.571-.445-2.44c-.145-.814-.241-1.638-.364-2.457l2.876-.381c.118.786.209,1.576.349,2.358Z" transform="translate(-2324.953 -4448.834)" fill="#3c415e" fill-rule="evenodd"/>
        </g>
        <g id="Group_1461" data-name="Group 1461" transform="translate(4.131 58.516)">
          <g id="Group_1460" data-name="Group 1460">
            <path id="Path_13537" data-name="Path 13537" d="M2306.815,4330.341a39.164,39.164,0,0,1,5.9-8.706c.577-.634,1.178-1.221,1.777-1.824.3-.293.6-.607.909-.878l.93-.8.938-.8c.314-.267.629-.53.947-.757q.952-.706,1.916-1.4c.16-.112.322-.235.482-.339l.481-.308.965-.609c.644-.4,1.3-.829,1.935-1.161l1.931-1.047.484-.257.478-.229.957-.453c.637-.294,1.283-.615,1.915-.88l1.893-.777.949-.383c.314-.121.623-.227.935-.341l1.87-.666,9.364,27.451-1.2.428c-.2.071-.4.138-.6.212l-.56.232-1.122.456c-.371.152-.693.327-1.044.485l-.517.24-.26.118-.233.129-.933.507a9.407,9.407,0,0,0-.857.517l-.415.257-.209.126c-.068.042-.119.089-.18.134q-.352.269-.716.521a2.16,2.16,0,0,0-.324.263l-.3.261-.309.25c-.1.084-.167.177-.255.262-.159.174-.349.334-.5.5a10.182,10.182,0,0,0-1.389,2.042Z" transform="translate(-2306.815 -4307.728)" fill="none"/>
          </g>
          <path id="Path_13538" data-name="Path 13538" d="M2399.343,4356.246l-1.254-2.615c1.507-.741,3.054-1.358,4.605-1.956l1.016,2.718C2402.231,4354.962,2400.758,4355.55,2399.343,4356.246Z" transform="translate(-2371.889 -4339.06)" fill="#3c415e" fill-rule="evenodd"/>
          <path id="Path_13539" data-name="Path 13539" d="M2372.986,4370.192l-1.831-2.25a12.834,12.834,0,0,1,1.015-.786l1.035-.754c.339-.264.71-.467,1.065-.7l1.078-.677,1.484,2.494-1,.624c-.328.213-.675.4-.981.644l-.946.69A10.459,10.459,0,0,0,2372.986,4370.192Z" transform="translate(-2352.687 -4348.579)" fill="#3c415e" fill-rule="evenodd"/>
          <path id="Path_13540" data-name="Path 13540" d="M2352.36,4390.512l-2.485-1.5a10.722,10.722,0,0,1,.708-1.1l.747-1.072c.259-.35.551-.671.825-1.009s.548-.675.847-.988l2.129,1.971c-.268.278-.5.588-.752.88s-.506.585-.735.895l-.659.949A8.822,8.822,0,0,0,2352.36,4390.512Z" transform="translate(-2337.515 -4362.711)" fill="#3c415e" fill-rule="evenodd"/>
        </g>
        <g id="Group_1463" data-name="Group 1463" transform="translate(32.724 52.595)">
          <g id="Group_1462" data-name="Group 1462">
            <path id="Path_13541" data-name="Path 13541" d="M2406.428,4293.021a109.947,109.947,0,0,1,14.5-3.771c4.719-.917,9.35-1.593,13.934-2.15l3.459,28.8c-4.04.491-8.012,1.075-11.821,1.816a81.554,81.554,0,0,0-10.71,2.758Z" transform="translate(-2406.428 -4287.1)" fill="none"/>
          </g>
          <path id="Path_13542" data-name="Path 13542" d="M2487.618,4335.161l-.442-2.867c1.61-.263,3.223-.468,4.836-.684l.371,2.877C2490.792,4334.7,2489.2,4334.9,2487.618,4335.161Z" transform="translate(-2463.998 -4318.833)" fill="#3c415e" fill-rule="evenodd"/>
          <path id="Path_13543" data-name="Path 13543" d="M2457.67,4339.977l-.611-2.835,2.4-.494c.8-.17,1.607-.294,2.41-.444l.509,2.854c-.787.147-1.58.269-2.362.437Z" transform="translate(-2442.526 -4322.109)" fill="#3c415e" fill-rule="evenodd"/>
          <path id="Path_13544" data-name="Path 13544" d="M2428.207,4346.626l-.864-2.769c1.573-.514,3.167-.913,4.755-1.345l.708,2.813C2431.268,4345.745,2429.718,4346.13,2428.207,4346.626Z" transform="translate(-2421.339 -4326.606)" fill="#3c415e" fill-rule="evenodd"/>
        </g>
        <g id="Group_1465" data-name="Group 1465" transform="translate(61.16 50.48)">
          <g id="Group_1464" data-name="Group 1464">
            <path id="Path_13545" data-name="Path 13545" d="M2505.491,4281.847c9.161-1.094,18.125-1.683,27.026-2.114l1.365,28.972c-8.452.407-16.838.969-24.932,1.939Z" transform="translate(-2505.491 -4279.732)" fill="none"/>
          </g>
          <path id="Path_13546" data-name="Path 13546" d="M2578.274,4327.177l-.174-2.9,2.425-.146,2.424-.123.147,2.9-2.411.121Z" transform="translate(-2557.258 -4311.302)" fill="#3c415e" fill-rule="evenodd"/>
          <path id="Path_13547" data-name="Path 13547" d="M2548.042,4329.064l-.237-2.891c1.616-.146,3.232-.245,4.848-.366l.2,2.894C2551.25,4328.821,2549.643,4328.919,2548.042,4329.064Z" transform="translate(-2535.659 -4312.582)" fill="#3c415e" fill-rule="evenodd"/>
          <path id="Path_13548" data-name="Path 13548" d="M2517.946,4331.625l-.323-2.883c1.614-.2,3.23-.332,4.845-.5l.272,2.888C2521.142,4331.3,2519.539,4331.429,2517.946,4331.625Z" transform="translate(-2514.141 -4314.318)" fill="#3c415e" fill-rule="evenodd"/>
        </g>
        <g id="Group_1467" data-name="Group 1467" transform="translate(88.186 48.816)">
          <g id="Group_1466" data-name="Group 1466">
            <path id="Path_13549" data-name="Path 13549" d="M2599.644,4275.6l6.417-.321c2.123-.117,4.248-.231,6.356-.372,2.118-.125,4.212-.287,6.314-.436,2.086-.173,4.182-.331,6.243-.534l2.715,28.875c-2.262.222-4.5.393-6.741.578-2.231.158-4.469.33-6.687.462-2.226.147-4.439.268-6.653.39l-6.6.331Z" transform="translate(-2599.644 -4273.936)" fill="none"/>
          </g>
          <path id="Path_13550" data-name="Path 13550" d="M2668.864,4321.639l-.22-2.892,4.8-.393.255,2.889Z" transform="translate(-2648.837 -4305.604)" fill="#3c415e" fill-rule="evenodd"/>
          <path id="Path_13551" data-name="Path 13551" d="M2638.764,4323.881l-.172-2.9,4.812-.306.2,2.894Z" transform="translate(-2627.412 -4307.261)" fill="#3c415e" fill-rule="evenodd"/>
          <path id="Path_13552" data-name="Path 13552" d="M2608.719,4325.626l-.138-2.9c1.607-.083,3.215-.149,4.82-.244l.156,2.9C2611.945,4325.476,2610.332,4325.543,2608.719,4325.626Z" transform="translate(-2606.016 -4308.549)" fill="#3c415e" fill-rule="evenodd"/>
        </g>
        <g id="Group_1469" data-name="Group 1469" transform="translate(113.516 45.201)">
          <g id="Group_1468" data-name="Group 1468">
            <path id="Path_13553" data-name="Path 13553" d="M2687.888,4264.956c4.134-.391,8.228-.84,12.183-1.428a114.505,114.505,0,0,0,11.311-2.187l7.185,28.1a142.774,142.774,0,0,1-14.264,2.781c-4.64.688-9.186,1.184-13.7,1.611Z" transform="translate(-2687.888 -4261.34)" fill="none"/>
          </g>
          <path id="Path_13554" data-name="Path 13554" d="M2758.562,4309.322l-.54-2.85c.785-.133.444-.205,1.222-.36l2.277-.351,1.155-.271.661,2.825-1.189.279-1.195.248C2760.156,4309,2759.362,4309.187,2758.562,4309.322Z" transform="translate(-2737.89 -4292.817)" fill="#3c415e" fill-rule="evenodd"/>
          <path id="Path_13555" data-name="Path 13555" d="M2728.9,4314.755l-.389-2.874,2.374-.331,2.363-.372.464,2.864-3.517.485Z" transform="translate(-2716.854 -4296.873)" fill="#3c415e" fill-rule="evenodd"/>
          <path id="Path_13556" data-name="Path 13556" d="M2699.1,4318.681l-.288-2.886c1.592-.175,3.188-.328,4.776-.522l.339,2.879C2702.325,4318.351,2700.714,4318.5,2699.1,4318.681Z" transform="translate(-2695.68 -4299.792)" fill="#3c415e" fill-rule="evenodd"/>
        </g>
        <g id="Group_1471" data-name="Group 1471" transform="translate(137.01 39.534)">
          <g id="Group_1470" data-name="Group 1470">
            <path id="Path_13557" data-name="Path 13557" d="M2769.733,4247.264c1.723-.464,3.432-.938,4.913-1.493l.566-.2.283-.1.258-.108,1.031-.425a4.875,4.875,0,0,0,.479-.22l.457-.22.459-.214c.144-.073.263-.15.4-.224l.393-.216a2.967,2.967,0,0,0,.369-.213c.211-.145.425-.283.645-.415.178-.137.327-.267.5-.386.041-.031.093-.059.125-.089l.084-.089q.086-.086.18-.164a2.963,2.963,0,0,0,.7-.889l26.183,12.477q-.328.69-.672,1.372-.38.661-.775,1.315t-.8,1.3c-.283.416-.583.811-.881,1.213s-.6.8-.91,1.189-.636.732-.959,1.1a26.932,26.932,0,0,1-1.992,2.042l-1.027.93-.519.459c-.173.148-.344.275-.517.412-.691.536-1.393,1.082-2.093,1.582q-1.036.69-2.087,1.36c-.354.235-.691.414-1.035.611l-1.031.574c-.343.188-.692.387-1.032.561l-1.01.489-1.013.484c-.338.16-.679.324-1,.454l-1.98.82-.5.2-.483.176-.967.349c-2.595.951-5.077,1.643-7.549,2.3Z" transform="translate(-2769.733 -4241.598)" fill="none"/>
          </g>
          <path id="Path_13558" data-name="Path 13558" d="M2838.973,4271.278l-.851-2.243a18.29,18.29,0,0,0,1.523-1.561c.235-.274.436-.573.657-.856l.326-.43c.1-.15.185-.306.278-.458l2.456,1.542c-.112.183-.219.369-.336.547l-.385.512c-.261.337-.5.691-.781,1.014C2841.281,4269.967,2839.621,4270.734,2838.973,4271.278Z" transform="translate(-2818.491 -4258.803)" fill="#3c415e" fill-rule="evenodd"/>
          <path id="Path_13559" data-name="Path 13559" d="M2815.688,4289.567l-1.216-2.633c.687-.339.287-.533.937-.921l2.108-.662c.327-.19.632-.406.951-.607l1.589,2.426c-.353.225-.7.465-1.057.675l-1.09.607C2817.191,4288.876,2816.431,4289.2,2815.688,4289.567Z" transform="translate(-2801.629 -4272.358)" fill="#3c415e" fill-rule="evenodd"/>
          <path id="Path_13560" data-name="Path 13560" d="M2787.9,4301.42l-.788-2.792c.765-.193,1.5-.452,2.253-.678s1.482-.495,2.216-.757l1,2.725c-.774.276-2.656.674-3.441.9S2788.693,4301.219,2787.9,4301.42Z" transform="translate(-2782.125 -4281.233)" fill="#3c415e" fill-rule="evenodd"/>
        </g>
        <g id="Group_1473" data-name="Group 1473" transform="translate(148.729 10.186)">
          <g id="Group_1472" data-name="Group 1472">
            <path id="Path_13561" data-name="Path 13561" d="M2810.676,4168.705a4.067,4.067,0,0,0,.32-1.357c0-.208.033-.392.041-.618-.011-.25-.014-.5-.009-.748a1,1,0,0,0-.01-.205l-.021-.219-.034-.438-.014-.219-.007-.109-.013-.086q-.026-.168-.046-.336a6.462,6.462,0,0,0-.216-.979c-.078-.224-.119-.328-.105-.291-.009.006,0,0,0,0l16.667-23.743a28.64,28.64,0,0,1,8.651,9.587q.387.718.752,1.445c.234.48.438.956.649,1.438s.382.946.557,1.416.344.939.477,1.4a35.223,35.223,0,0,1,1.239,5.367l.173,1.277.04.318.026.3.05.593.093,1.186.043.593c.016.195.027.4.029.609q.023,1.255.022,2.51c-.022.858-.094,1.757-.157,2.633l-.055.662-.1.69-.21,1.378a26.828,26.828,0,0,1-.606,2.8c-.126.472-.228.936-.388,1.41s-.323.95-.491,1.422-.337.941-.529,1.407q-.312.7-.64,1.388Z" transform="translate(-2810.559 -4139.356)" fill="none"/>
          </g>
          <path id="Path_13562" data-name="Path 13562" d="M2842.77,4186.341l-2.556,1.372c-.645-1.249-2.639-2.26-3.668-3.212l3.08-2.243A14.974,14.974,0,0,1,2842.77,4186.341Z" transform="translate(-2829.086 -4169.943)" fill="#3c415e" fill-rule="evenodd"/>
          <path id="Path_13563" data-name="Path 13563" d="M2857.191,4214.648l-2.895.192a18.515,18.515,0,0,0-.676-4.41l2.8-.753A24.79,24.79,0,0,1,2857.191,4214.648Z" transform="translate(-2841.259 -4189.492)" fill="#3c415e" fill-rule="evenodd"/>
          <path id="Path_13564" data-name="Path 13564" d="M2855.729,4245.181l-2.747-.934.183-.507.129-.527c.084-.353.181-.7.259-1.055l.166-1.085c.025-.182.062-.36.078-.544l.036-.555,2.891.23-.043.63c-.019.209-.06.418-.089.627l-1.306,1.364c-.09.415.912.718.811,1.132l-.156.619Z" transform="translate(-2840.805 -4211.092)" fill="#3c415e" fill-rule="evenodd"/>
        </g>
        <g id="Group_1475" data-name="Group 1475" transform="translate(129.453 4)">
          <g id="Group_1474" data-name="Group 1474">
            <path id="Path_13565" data-name="Path 13565" d="M2762.688,4147.736s0,.008,0,0-.031-.008-.038-.021-.055-.026-.092-.046a.54.54,0,0,1-.056-.033l-.083-.029a5.679,5.679,0,0,0-.946-.314,14.336,14.336,0,0,0-1.516-.289c-.595-.074-1.246-.135-1.953-.168a39.038,39.038,0,0,0-4.729.116c-1.7.13-3.5.357-5.34.649l-4.529-28.648c2.447-.386,4.961-.71,7.593-.915a67.632,67.632,0,0,1,8.292-.177c1.463.066,2.977.195,4.536.4a43.077,43.077,0,0,1,4.878.947,34.494,34.494,0,0,1,5.218,1.777l.666.29.676.326c.45.222.89.434,1.355.7s.91.5,1.371.8.916.584,1.362.894Z" transform="translate(-2743.408 -4117.809)" fill="none"/>
          </g>
          <path id="Path_13566" data-name="Path 13566" d="M2762.316,4165.348l.217,2.892c-2.677.2-4.233.444-4.693.507l-.4-2.874C2759.059,4165.651,2760.683,4165.471,2762.316,4165.348Z" transform="translate(-2753.414 -4151.702)" fill="#3c415e" fill-rule="evenodd"/>
          <path id="Path_13567" data-name="Path 13567" d="M2790.2,4165.214l-.314,2.884a39.112,39.112,0,0,0-4.611-.214l-1.138-2.792C2785.783,4165.076,2788.549,4165.035,2790.2,4165.214Z" transform="translate(-2772.446 -4151.508)" fill="#3c415e" fill-rule="evenodd"/>
          <path id="Path_13568" data-name="Path 13568" d="M2821.845,4169.632l-1.342,2.572a18.763,18.763,0,0,0-4.108-1.506l.688-2.818A19.132,19.132,0,0,1,2821.845,4169.632Z" transform="translate(-2795.445 -4153.507)" fill="#3c415e" fill-rule="evenodd"/>
        </g>
        <g id="Group_1477" data-name="Group 1477" transform="translate(102.476 5.148)">
          <g id="Group_1476" data-name="Group 1476">
            <path id="Path_13569" data-name="Path 13569" d="M2680.931,4150.454c-3.692.585-7.568,1.432-11.524,2.414s-8,2.1-12.176,3.27l-7.805-27.934c4.2-1.172,8.524-2.377,13-3.486s9.092-2.136,13.982-2.912Z" transform="translate(-2649.425 -4121.806)" fill="none"/>
          </g>
          <path id="Path_13570" data-name="Path 13570" d="M2672.366,4183.029l-.357,2.909-4.651,1.278.334-2.9Z" transform="translate(-2662.211 -4165.455)" fill="#3c415e" fill-rule="evenodd"/>
          <path id="Path_13571" data-name="Path 13571" d="M2701.375,4175.906l1.78,2.715q-2.331.552-4.659,1.155l-.724-2.809C2699.338,4176.563,2699.8,4176.279,2701.375,4175.906Z" transform="translate(-2683.894 -4160.376)" fill="#3c415e" fill-rule="evenodd"/>
          <path id="Path_13572" data-name="Path 13572" d="M2732.008,4169.322l-.608,2.965c-1.563.275-2.011.476-3.569.809l-.606-2.836Q2729.606,4169.749,2732.008,4169.322Z" transform="translate(-2704.893 -4155.683)" fill="#3c415e" fill-rule="evenodd"/>
        </g>
        <g id="Group_1479" data-name="Group 1479" transform="translate(73.874 11.545)">
          <g id="Group_1478" data-name="Group 1478">
            <path id="Path_13573" data-name="Path 13573" d="M2586.19,4172.027l-6.395,1.771-.825.221-.417.113-.612.143q-1.224.286-2.456.543c-.837.151-1.7.262-2.559.377-.845.13-1.741.167-2.625.216a36.444,36.444,0,0,1-10.758-1.065,37.478,37.478,0,0,1-9.762-4.076l14.753-24.972a8.494,8.494,0,0,0,2.212.953,7.407,7.407,0,0,0,2.163.189,11.187,11.187,0,0,0,1.285-.138q.359-.1.723-.168l.183-.034.37-.1.749-.2,6.164-1.707Z" transform="translate(-2549.782 -4144.093)" fill="none"/>
          </g>
          <path id="Path_13574" data-name="Path 13574" d="M2584.116,4193.333l-.688,2.819c-.428-.094-.842-.239-1.264-.357s-1.954-.135-2.357-.3l-.11-.582c-.4-.177-.789-.369-1.182-.555l1.275-2.6c.349.163.7.335,1.047.493l1.077.415a9.93,9.93,0,0,0,1.094.362C2583.378,4193.122,2583.741,4193.253,2584.116,4193.333Z" transform="translate(-2570.267 -4178.07)" fill="#3c415e" fill-rule="evenodd"/>
          <path id="Path_13575" data-name="Path 13575" d="M2614.774,4198.365l.431,2.869-1.29.177c-.432.046-.87.054-1.3.081l-.653.032-.326.017-.328-.011-1.312-.046.176-2.9,1.152.042.288.009-.824.093,1.69-.138c.384-.025.77-.029,1.153-.071Z" transform="translate(-2592.708 -4182.786)" fill="#3c415e" fill-rule="evenodd"/>
          <path id="Path_13576" data-name="Path 13576" d="M2642.983,4191.159l-.334,2.9-4.68,1.289.358-2.909Z" transform="translate(-2612.656 -4177.649)" fill="#3c415e" fill-rule="evenodd"/>
        </g>
        <g id="Group_1481" data-name="Group 1481" transform="translate(51.77)">
          <g id="Group_1480" data-name="Group 1480">
            <path id="Path_13577" data-name="Path 13577" d="M2494.881,4141.594a43.79,43.79,0,0,1-7.755-5.884,53.574,53.574,0,0,1-5.942-6.674,62.962,62.962,0,0,1-4.608-7.058c-.684-1.205-1.323-2.426-1.933-3.686-.153-.313-.305-.63-.453-.954s-.3-.645-.445-.98-.3-.677-.443-1.025l-.229-.559-.126-.316-.169-.442,27.2-10.058-.031-.085.009.023.025.061.08.194.2.47c.07.162.148.331.229.5s.159.342.246.517c.337.694.7,1.4,1.094,2.083a33.914,33.914,0,0,0,2.506,3.848,19.426,19.426,0,0,0,5.292,5.049Z" transform="translate(-2472.777 -4103.872)" fill="none"/>
          </g>
          <path id="Path_13578" data-name="Path 13578" d="M2518.85,4130.62l-2.52,1.437c-.827-1.451-2.7-2.827-3.4-4.355l3.757-1.3C2517.344,4127.835,2518.066,4129.247,2518.85,4130.62Z" transform="translate(-2501.408 -4119.933)" fill="#52298a" fill-rule="evenodd"/>
          <path id="Path_13579" data-name="Path 13579" d="M2537.33,4156l-2.213,1.876a45.008,45.008,0,0,1-3.037-4.022l2.4-1.624A32.823,32.823,0,0,0,2537.33,4156Z" transform="translate(-2515.058 -4138.346)" fill="#3c415e" fill-rule="evenodd"/>
          <path id="Path_13580" data-name="Path 13580" d="M2557.786,4177.763l-1.658,2.38a35.222,35.222,0,0,1-3.954-3.267l2.011-2.09A26.6,26.6,0,0,0,2557.786,4177.763Z" transform="translate(-2529.384 -4154.43)" fill="#3c415e" fill-rule="evenodd"/>
        </g>
      </g>
      <g id="Group_1483" data-name="Group 1483" transform="translate(21.02)">
        <path id="Path_13581" data-name="Path 13581" d="M2423.976,4046l-8.065,9.208-50.259-14.634Z" transform="translate(-2365.652 -4040.576)" fill="#f5a524"/>
        <path id="Path_13582" data-name="Path 13582" d="M2413.715,4074.439l2.2-19.229-50.259-14.634,42.832,22.677Z" transform="translate(-2365.652 -4040.576)" fill="#f6af00"/>
        <path id="Path_13583" data-name="Path 13583" d="M2394.9,4077.01l13.58-13.758-42.832-22.677Z" transform="translate(-2365.652 -4040.576)" fill="#f5a524"/>
      </g>
    </g>
    <g id="Group_1485" data-name="Group 1485" transform="translate(2208.656 4041.439)">
      <path id="Path_13584" data-name="Path 13584" d="M2578.263,4814.59a9.9,9.9,0,0,1-2.906,7.3,10.548,10.548,0,0,1-6.809,2.445l-214.124.4a11.627,11.627,0,0,1-6.818-2.42,9.9,9.9,0,0,1-2.934-7.294l-.264-142.587L2578,4672l.263,142.588Z" transform="translate(-2344.41 -4590.705)" fill="#738598"/>
      <path id="Path_13585" data-name="Path 13585" d="M2583.3,4951.763a10.549,10.549,0,0,1-6.809,2.446l-214.124.4a11.627,11.627,0,0,1-6.818-2.42l113.694-98.026Z" transform="translate(-2352.35 -4720.574)" fill="#3c415e"/>
      <path id="Path_13586" data-name="Path 13586" d="M2578,4470.079l-33.048,23.907-77.273,55.62a10.95,10.95,0,0,1-13.14.024l-76.992-55.335-33.136-23.785,33.048-23.907,71.928-51.717,5.346-3.9a10.949,10.949,0,0,1,13.139-.024l5.36,3.883,34.6,24.755,17.055,12.134,19.98,14.563Z" transform="translate(-2344.41 -4388.782)" fill="#3c415e"/>
      <path id="Path_13587" data-name="Path 13587" d="M2626.715,4439.749l.128,69.1-77.274,55.62a10.95,10.95,0,0,1-13.14.025l-76.992-55.336-.166-89.542a9.763,9.763,0,0,1,9.715-9.751l127.014-.234Z" transform="translate(-2426.301 -4403.648)" fill="#faf9f9"/>
      <path id="Path_13588" data-name="Path 13588" d="M2937.337,4432.017a7.687,7.687,0,0,0,7.8,7.771l22.385-.042-30.228-30.117.042,22.387Z" transform="translate(-2767.109 -4403.646)" fill="#afb9ca"/>
    </g>
    <g id="Group_1490" data-name="Group 1490" transform="translate(2169.108 4202.459)">
      <path id="Path_13589" data-name="Path 13589" d="M2350.27,5001.292c-2.017-.307-4.2.858-5.987,1.642-.192.084-.593.3-1.009.525q1.069-1.222,2.153-2.433c.48-.536.967-1.067,1.453-1.6.522.082,1.615-.105,2.863.035,1.475.165,2.1.744,3.448-.378,1.27-1.058,1.807-2.9-.2-3.2-1.708-.257-3.29.856-4.7,1.982a30.481,30.481,0,0,0,3.948-5.348c5.306-2.688,7.828-10.575,7.072-16.074a2.481,2.481,0,0,0-.566-1.465c-.818-.817-2.26-.244-3.028.622a7.9,7.9,0,0,0-1.724,4.458c-.173,1.612-.072,3.239-.154,4.857a18.3,18.3,0,0,1-.681,3.878.365.365,0,0,0-.042.067,22.064,22.064,0,0,1-3.475,5.657,17.506,17.506,0,0,0,.865-3.9,9.526,9.526,0,0,0-1.07-6.032,1.324,1.324,0,0,0-.85-.731c-.482-.067-.886.354-1.15.763a6.871,6.871,0,0,0-.981,4.917c.4,2.155,1.542,4.13,2.023,6.269a.621.621,0,0,0,.081-.011c-.877,1-1.793,1.959-2.707,2.914a14.674,14.674,0,0,0,.152-4.892,4.039,4.039,0,0,0-.963-2.12,1.9,1.9,0,0,0-2.156-.463,2,2,0,0,0-.863,1.039c-.552,1.363-.066,2.9.422,4.291s.918,2.826,1.464,4.193l-.325.349q-2.328,2.538-4.591,5.142a25.217,25.217,0,0,0,1.152-3.7,14.9,14.9,0,0,0-.123-7.693,5.428,5.428,0,0,0-1.561-2.6,1.165,1.165,0,0,0-1.131-.316,1.223,1.223,0,0,0-.5.445,5.731,5.731,0,0,0-.75,4.07,42.688,42.688,0,0,0,1.749,6.416,12.465,12.465,0,0,1,.654,3.963q-2.327,2.708-4.536,5.511a26.313,26.313,0,0,0,1.78-7.247c.247-2.039.039-4.4-1.576-5.671a1.928,1.928,0,0,0-.793-.4c-.919-.186-1.757.648-2.072,1.531a5.828,5.828,0,0,0,.069,3.538c.332,1.152.848,2.243,1.208,3.387a15,15,0,0,1,.423,6.1q-1.685,2.194-3.287,4.452a20.728,20.728,0,0,0,.466-3,14.426,14.426,0,0,0-.788-6.131c-.24-.661-.619-1.383-1.3-1.539a1.884,1.884,0,0,0-1.633.648,5,5,0,0,0-1.431,4.294,9.831,9.831,0,0,0,1.081,2.835l1.421,2.814a6.7,6.7,0,0,1,.7,2.233q-1.714,2.533-3.293,5.151a17.823,17.823,0,0,0,.485-2.5,9.592,9.592,0,0,0-.86-5.574,2.423,2.423,0,0,0-1.38-1.324,1.883,1.883,0,0,0-2.1,1.386,3.988,3.988,0,0,0,.359,2.705,9.563,9.563,0,0,0,1.358,2.206,7.663,7.663,0,0,1,1.1,1.481,5.472,5.472,0,0,1,.37,2.244c0,.158.007.317.011.476-.811,1.372-1.615,2.77-2.378,4.194a9.691,9.691,0,0,0-1.3-4.955c-.509-.873-1.411-1.753-2.387-1.491a1.542,1.542,0,0,0-.782.526,2.731,2.731,0,0,0,.256,3.21c.679.935,1.66,1.606,2.407,2.488a16.609,16.609,0,0,1,.939,1.876,46.374,46.374,0,0,0-2.919,7.033.563.563,0,0,0,1.053.4c.89-1.721,1.747-3.449,2.613-5.171a49.614,49.614,0,0,0,5.083,1.3,2.287,2.287,0,0,0,2.516-.653,1.9,1.9,0,0,0-.52-2.394,3.7,3.7,0,0,0-2.534-.676,12.833,12.833,0,0,0-3.927,1.2c.9-1.764,1.812-3.517,2.789-5.245a7.292,7.292,0,0,1,1.738.008c.915.167,1.768.6,2.687.747a2.334,2.334,0,0,0,2.458-.9,2.037,2.037,0,0,0-1.241-2.666,4.471,4.471,0,0,0-3.239.3c-.324.133-.791.314-1.259.542.084-.138.164-.279.249-.417.462-.753.935-1.5,1.413-2.24,1.206.258,2.909-.13,4.191-.1a7.832,7.832,0,0,0,3.562-.38c1.092-.512,1.879-1.908,1.275-2.952-.548-.946-1.869-1.084-2.942-.875a13.157,13.157,0,0,0-4.661,2.144q1.573-2.334,3.237-4.6c2.1-.249,4.81,1.369,7.06.563.909-.326,2.16-1.372,1.7-2.531-.36-.913-1.921-.982-2.739-1.056a8.659,8.659,0,0,0-4.566,1.058q.667-.888,1.344-1.766.873-1.13,1.764-2.244a16.435,16.435,0,0,1,3.465.133c1.657.272,3.391.916,4.722-.6,1.217-1.387,1.771-4.273-.779-4.121a12.825,12.825,0,0,0-5.4,2.105q1.744-2.116,3.543-4.186a14.987,14.987,0,0,1,4.133.551c1.454.5,3.207,1.877,4.551.637A2.2,2.2,0,0,0,2350.27,5001.292Z" transform="translate(-2285.313 -4967.449)" fill="#ffda32"/>
      <path id="Path_13590" data-name="Path 13590" d="M2312.893,4977.22c-1.954.587-3.429,2.575-4.708,4.047-.137.158-.405.529-.686.907q.442-1.562.9-3.12c.2-.689.417-1.379.628-2.069.506-.149,1.414-.786,2.6-1.194,1.4-.482,2.216-.228,2.953-1.819.7-1.5.392-3.394-1.552-2.807-1.654.5-2.606,2.182-3.4,3.8a30.484,30.484,0,0,0,1.277-6.523c3.644-4.7,2.544-12.91-.494-17.554a2.481,2.481,0,0,0-1.138-1.082c-1.09-.388-2.147.748-2.47,1.859a7.906,7.906,0,0,0,.352,4.768c.534,1.53,1.322,2.958,1.941,4.455a18.27,18.27,0,0,1,1.045,3.8.339.339,0,0,0-.01.078,22.068,22.068,0,0,1-.717,6.6,17.511,17.511,0,0,0-.889-3.9,9.529,9.529,0,0,0-3.55-4.994,1.32,1.32,0,0,0-1.081-.3c-.465.146-.648.7-.713,1.183a6.864,6.864,0,0,0,1.22,4.863c1.28,1.778,3.161,3.072,4.513,4.8a.625.625,0,0,0,.068-.044c-.366,1.274-.781,2.538-1.2,3.792a14.663,14.663,0,0,0-1.958-4.486,4.032,4.032,0,0,0-1.778-1.5,1.9,1.9,0,0,0-2.146.505,1.989,1.989,0,0,0-.335,1.309c.085,1.468,1.183,2.651,2.219,3.7s2.039,2.16,3.118,3.162c-.048.152-.1.3-.143.454q-1.018,3.291-1.948,6.614a25.154,25.154,0,0,0-.542-3.835,14.888,14.888,0,0,0-3.406-6.9,5.424,5.424,0,0,0-2.525-1.685,1.166,1.166,0,0,0-1.158.2,1.229,1.229,0,0,0-.259.615,5.738,5.738,0,0,0,1.065,4,42.876,42.876,0,0,0,4.328,5.049,12.457,12.457,0,0,1,2.289,3.3q-.944,3.442-1.74,6.922a26.3,26.3,0,0,0-1.495-7.311c-.65-1.948-1.851-4-3.853-4.451a1.927,1.927,0,0,0-.889-.022,2.041,2.041,0,0,0-1.216,2.271,5.83,5.83,0,0,0,1.577,3.168c.793.9,1.727,1.664,2.542,2.543a14.979,14.979,0,0,1,2.994,5.331q-.583,2.7-1.063,5.431a20.843,20.843,0,0,0-.863-2.91,14.435,14.435,0,0,0-3.337-5.2,2.157,2.157,0,0,0-1.839-.831,1.885,1.885,0,0,0-1.2,1.286,5,5,0,0,0,.545,4.493,9.856,9.856,0,0,0,2.191,2.1l2.49,1.934a6.729,6.729,0,0,1,1.585,1.721q-.464,3.023-.77,6.064a17.911,17.911,0,0,0-.631-2.464,9.6,9.6,0,0,0-3.164-4.667,2.418,2.418,0,0,0-1.815-.607,1.884,1.884,0,0,0-1.308,2.155,3.99,3.99,0,0,0,1.483,2.291,9.6,9.6,0,0,0,2.172,1.412,7.626,7.626,0,0,1,1.63.867,5.462,5.462,0,0,1,1.3,1.87c.071.14.141.283.213.424-.146,1.588-.273,3.2-.354,4.81a9.691,9.691,0,0,0-3.292-3.923c-.834-.571-2.026-.979-2.8-.325a1.539,1.539,0,0,0-.482.81,2.731,2.731,0,0,0,1.606,2.791c1.014.555,2.188.742,3.241,1.218a16.626,16.626,0,0,1,1.652,1.293,46.419,46.419,0,0,0,.374,7.605.563.563,0,0,0,1.122-.093c.067-1.936.1-3.864.146-5.792a49.459,49.459,0,0,0,5.15-1,2.289,2.289,0,0,0,1.994-1.667,1.9,1.9,0,0,0-1.495-1.94,3.7,3.7,0,0,0-2.579.475,12.835,12.835,0,0,0-3.034,2.766c.054-1.978.132-3.955.274-5.934a7.333,7.333,0,0,1,1.574-.736c.9-.241,1.854-.217,2.748-.477a2.338,2.338,0,0,0,1.836-1.864,2.036,2.036,0,0,0-2.263-1.876,4.466,4.466,0,0,0-2.8,1.662c-.236.259-.58.623-.906,1.029.017-.161.029-.322.046-.484.095-.878.2-1.753.318-2.629,1.2-.283,2.573-1.363,3.746-1.881a7.834,7.834,0,0,0,3.056-1.869c.767-.931.881-2.529-.112-3.213-.9-.621-2.154-.18-3.034.469a13.171,13.171,0,0,0-3.294,3.933q.422-2.782.953-5.546c1.787-1.123,4.933-.824,6.621-2.516.681-.682,1.364-2.163.454-3.015-.716-.671-2.156-.063-2.928.218a8.681,8.681,0,0,0-3.672,2.911q.223-1.087.458-2.17c.2-.93.416-1.857.633-2.784a16.464,16.464,0,0,1,3.188-1.362c1.613-.464,3.457-.625,4.01-2.565.506-1.774-.23-4.621-2.469-3.39a12.835,12.835,0,0,0-3.975,4.213q.671-2.659,1.41-5.3a14.916,14.916,0,0,1,3.971-1.272c1.526-.175,3.7.322,4.385-1.374A2.2,2.2,0,0,0,2312.893,4977.22Z" transform="translate(-2268.336 -4949.733)" fill="#ffda32"/>
      <g id="Group_1486" data-name="Group 1486" transform="translate(20.128 44.819)">
        <path id="Path_13591" data-name="Path 13591" d="M2281.738,5136.87s-8.217-12.792-3.548-31c0,0,13.445,2.988,17.927,31Z" transform="translate(-2276.755 -5105.87)" fill="#00b256"/>
        <path id="Path_13592" data-name="Path 13592" d="M2301.863,5163.773s-3.511-16.808-5.471-20.169c0,0,5.9,10.645,6.778,20.169Z" transform="translate(-2290.755 -5132.772)" fill="#00663e"/>
      </g>
      <g id="Group_1487" data-name="Group 1487" transform="translate(33.448 45.061)">
        <path id="Path_13593" data-name="Path 13593" d="M2337.538,5137.714s8.217-12.792,3.548-31c0,0-13.446,2.988-17.927,31Z" transform="translate(-2323.159 -5106.714)" fill="#00b256"/>
        <path id="Path_13594" data-name="Path 13594" d="M2348.669,5164.616s3.51-16.807,5.471-20.169c0,0-5.9,10.645-6.778,20.169Z" transform="translate(-2340.415 -5133.615)" fill="#00663e"/>
      </g>
      <g id="Group_1488" data-name="Group 1488" transform="translate(44.831 36.1)">
        <path id="Path_13595" data-name="Path 13595" d="M2381.35,5115.458s10.592-16.49,4.574-39.961c0,0-17.332,3.852-23.11,39.961Z" transform="translate(-2362.814 -5075.497)" fill="#aaff6e"/>
        <path id="Path_13596" data-name="Path 13596" d="M2395.7,5150.136s4.525-21.665,7.053-26c0,0-7.606,13.721-8.738,26Z" transform="translate(-2385.057 -5110.175)" fill="#00663e"/>
      </g>
      <g id="Group_1489" data-name="Group 1489" transform="translate(0 36.1)">
        <path id="Path_13597" data-name="Path 13597" d="M2213.057,5115.458s-10.592-16.49-4.574-39.961c0,0,17.332,3.852,23.11,39.961Z" transform="translate(-2206.634 -5075.497)" fill="#aaff6e"/>
        <path id="Path_13598" data-name="Path 13598" d="M2239,5150.136s-4.525-21.665-7.053-26c0,0,7.605,13.721,8.738,26Z" transform="translate(-2224.681 -5110.175)" fill="#00663e"/>
      </g>
    </g>
    <g id="Group_1492" data-name="Group 1492" transform="translate(2393.107 4191.242)">
      <circle id="Ellipse_76" data-name="Ellipse 76" cx="34.863" cy="34.863" r="34.863" transform="translate(0 49.304) rotate(-45)" fill="#faf9f9"/>
      <circle id="Ellipse_77" data-name="Ellipse 77" cx="20.114" cy="20.114" r="20.114" transform="translate(29.191 29.191)" fill="#3c415e"/>
      <path id="Path_13599" data-name="Path 13599" d="M3080.682,5193.457a1.342,1.342,0,0,1-.948-2.29l5.274-5.273a1.341,1.341,0,1,1,1.9,1.9l-5.273,5.272A1.334,1.334,0,0,1,3080.682,5193.457Z" transform="translate(-3052.832 -5106.606)" fill="#f5a524"/>
      <path id="Path_13600" data-name="Path 13600" d="M3216.967,5193.357a1.339,1.339,0,0,1-.948-.393l-5.314-5.314a1.341,1.341,0,0,1,1.9-1.9l5.314,5.314a1.341,1.341,0,0,1-.948,2.289Z" transform="translate(-3146.208 -5106.507)" fill="#f5a524"/>
      <path id="Path_13601" data-name="Path 13601" d="M3239.948,4982.681a1.341,1.341,0,0,1-.948-2.29l4.022-4.022a1.34,1.34,0,0,1,1.9,1.9l-4.022,4.023A1.34,1.34,0,0,1,3239.948,4982.681Z" transform="translate(-3166.381 -4957.225)" fill="#fcc072"/>
      <path id="Path_13602" data-name="Path 13602" d="M3060.914,4982.681a1.341,1.341,0,0,1-.948-.393l-4.022-4.023a1.34,1.34,0,0,1,1.9-1.9l4.023,4.022a1.341,1.341,0,0,1-.948,2.29Z" transform="translate(-3035.87 -4957.225)" fill="#fcc072"/>
      <path id="Path_13603" data-name="Path 13603" d="M3065.5,5026.71a37.545,37.545,0,1,1,37.545-37.545A37.588,37.588,0,0,1,3065.5,5026.71Zm0-69.726a32.182,32.182,0,1,0,32.181,32.181A32.218,32.218,0,0,0,3065.5,4956.984Z" transform="translate(-3016.198 -4939.862)" fill="#3b8ae3"/>
      <g id="Group_1491" data-name="Group 1491" transform="translate(18.464 18.302)">
        <path id="Path_13604" data-name="Path 13604" d="M3155.425,4974.413a1.34,1.34,0,0,0-1.341,1.34v1.341a1.341,1.341,0,1,0,2.682,0v-1.341A1.34,1.34,0,0,0,3155.425,4974.413Z" transform="translate(-3124.584 -4974.413)" fill="#f5a524"/>
        <path id="Path_13605" data-name="Path 13605" d="M3155.425,5175.281a1.341,1.341,0,0,0-1.341,1.341v1.341a1.341,1.341,0,1,0,2.682,0v-1.341A1.341,1.341,0,0,0,3155.425,5175.281Z" transform="translate(-3124.584 -5117.622)" fill="#f5a524"/>
        <path id="Path_13606" data-name="Path 13606" d="M3254.865,5077.183h-1.341a1.341,1.341,0,1,0,0,2.682h1.341a1.341,1.341,0,0,0,0-2.682Z" transform="translate(-3194.523 -5047.683)" fill="#f5a524"/>
        <path id="Path_13607" data-name="Path 13607" d="M3054,5077.183h-1.341a1.341,1.341,0,1,0,0,2.682H3054a1.341,1.341,0,1,0,0-2.682Z" transform="translate(-3051.313 -5047.683)" fill="#f5a524"/>
        <path id="Path_13608" data-name="Path 13608" d="M3224.789,5004.9l-.948.949a1.341,1.341,0,0,0,1.9,1.9l.948-.949a1.341,1.341,0,0,0-1.9-1.9Z" transform="translate(-3174.037 -4995.87)" fill="#f5a524"/>
        <path id="Path_13609" data-name="Path 13609" d="M3082.756,5146.941l-.948.947a1.341,1.341,0,1,0,1.9,1.9l.948-.948a1.341,1.341,0,0,0-1.9-1.9Z" transform="translate(-3072.774 -5097.137)" fill="#f5a524"/>
        <path id="Path_13610" data-name="Path 13610" d="M3225.737,5146.94a1.34,1.34,0,0,0-1.9,1.9l.948.948a1.341,1.341,0,0,0,1.9-1.9Z" transform="translate(-3174.037 -5097.137)" fill="#f5a524"/>
        <path id="Path_13611" data-name="Path 13611" d="M3083.7,5004.9a1.341,1.341,0,0,0-1.9,1.9l.948.949a1.341,1.341,0,0,0,1.9-1.9Z" transform="translate(-3072.774 -4995.87)" fill="#f5a524"/>
      </g>
      <path id="Path_13612" data-name="Path 13612" d="M3102.7,5032.462a1.34,1.34,0,0,0,1.341,1.342h9.577a5.353,5.353,0,1,0,6.514-6.515v-13.6a1.341,1.341,0,0,0-2.682,0v13.6a5.357,5.357,0,0,0-3.832,3.832h-9.577A1.342,1.342,0,0,0,3102.7,5032.462Zm13.409,0a2.682,2.682,0,1,1,2.682,2.682A2.684,2.684,0,0,1,3116.11,5032.462Z" transform="translate(-3069.487 -4983.158)" fill="#f5a524"/>
      <path id="Path_13613" data-name="Path 13613" d="M3246.27,4949.014a9.547,9.547,0,0,1,0,13.5l-13.5-13.5A9.548,9.548,0,0,1,3246.27,4949.014Z" transform="translate(-3162.216 -4936.009)" fill="#f5a524"/>
      <path id="Path_13614" data-name="Path 13614" d="M3030.754,4949.014a9.547,9.547,0,0,0,0,13.5l13.5-13.5A9.548,9.548,0,0,0,3030.754,4949.014Z" transform="translate(-3016.198 -4936.009)" fill="#f5a524"/>
    </g>
    <g id="Group_1494" data-name="Group 1494" transform="translate(2420.966 4108.25)">
      <path id="Path_13615" data-name="Path 13615" d="M3150.425,4692.313a21.792,21.792,0,0,1-.642-3.191h-4.4v3.261Z" transform="translate(-3127.775 -4669.721)" fill="#fccb95"/>
      <path id="Path_13616" data-name="Path 13616" d="M3086.815,4621.534a8.025,8.025,0,0,0-2.772,5.38S3087.63,4627.729,3086.815,4621.534Z" transform="translate(-3084.043 -4621.534)" fill="#fcc072"/>
      <path id="Path_13617" data-name="Path 13617" d="M3126.769,4786.81l-1.956,17.118,8.8,25.759h-4.4l-10.2-21.937a6.059,6.059,0,0,1-.565-2.554l-.815-6.649-1.793,7.5.978,23.64h-3.912l-4.728-25.773a6.942,6.942,0,0,1,.257-3.493l4.634-13.612Z" transform="translate(-3101.173 -4739.367)" fill="#3c415e"/>
      <path id="Path_13618" data-name="Path 13618" d="M3125.6,4720.4h-16.466l1.794-17.934-7.011-3.1,4.4-5.705,11.225,1.555a6.285,6.285,0,0,1,5.417,6.016Z" transform="translate(-3098.215 -4672.96)" fill="#fb7668"/>
      <path id="Path_13619" data-name="Path 13619" d="M3141.761,4666.461a12.8,12.8,0,0,1-3.1-2.12c-.815-.978,1.141-5.706,3.1-6.847s5.217-1.3,5.217.652,1.63,5.217,0,6.031S3144.859,4666.623,3141.761,4666.461Z" transform="translate(-3122.85 -4646.571)" fill="#ffe1bd"/>
      <path id="Path_13620" data-name="Path 13620" d="M3150.141,4646.8s-2.609-3.26-.978-6.521a3.934,3.934,0,0,0,2.771,2.119c2.12.489,4.542.958,5.379,3.261,1.3,3.587,1.382,7.674-5.706,8.641,0,0,2.935-2.609,2.283-4.4S3151.282,4647.776,3150.141,4646.8Z" transform="translate(-3130.088 -4634.897)" fill="#3c415e"/>
      <path id="Path_13621" data-name="Path 13621" d="M3102.629,4632.458l-15.814-10.923s-.816,4.4-2.772,5.38Z" transform="translate(-3084.043 -4621.534)" fill="#ffd200"/>
      <g id="Group_1493" data-name="Group 1493" transform="translate(1.93 3.261)">
        <path id="Path_13622" data-name="Path 13622" d="M3090.772,4651.589l1.268-15.376-.006,0,.012-.073.008-.1.008,0c.445-2.569,1.512-3.148,1.991-3.148a1.912,1.912,0,0,1,1.467,1.631c.153.916-.914,2.5-1.051,2.7l.073,12.3,4.4.816-3.913,5.053-2.182-.727A3.046,3.046,0,0,1,3090.772,4651.589Z" transform="translate(-3090.766 -4632.893)" fill="#ffe1bd"/>
        <path id="Path_13623" data-name="Path 13623" d="M3122.354,4651.959l.731,12.106-3.828-.53.6-12.131Z" transform="translate(-3111.078 -4646.09)" fill="#ffe1bd"/>
      </g>
      <path id="Path_13624" data-name="Path 13624" d="M3174.61,4936.184h-4.4l-4.356,3.415a.734.734,0,0,0,.453,1.313h7.57a.735.735,0,0,0,.735-.734Z" transform="translate(-3142.167 -4845.865)" fill="#3c415e"/>
      <path id="Path_13625" data-name="Path 13625" d="M3116.16,4936.184h-3.913l-4.8,3.393a.735.735,0,0,0,.425,1.334h7.551a.735.735,0,0,0,.735-.734Z" transform="translate(-3100.509 -4845.865)" fill="#3c415e"/>
    </g>
    <path id="Path_13626" data-name="Path 13626" d="M2202.479,4503.456l2.7-2.008a16.725,16.725,0,0,0-5.147-5.147l-2.008,2.7a13.233,13.233,0,0,0-3.753-1.557l.487-3.33a16.318,16.318,0,0,0-7.28,0l.488,3.33a13.241,13.241,0,0,0-3.754,1.557l-2.008-2.7a16.727,16.727,0,0,0-5.146,5.147l2.7,2.008a13.216,13.216,0,0,0-1.556,3.753l-3.33-.487a16.3,16.3,0,0,0,0,7.279l3.33-.487a13.219,13.219,0,0,0,1.556,3.753l-2.7,2.008a16.721,16.721,0,0,0,5.146,5.147l2.008-2.7a13.228,13.228,0,0,0,3.754,1.557l-.488,3.331a16.356,16.356,0,0,0,7.28,0l-.487-3.331a13.22,13.22,0,0,0,3.753-1.557l2.008,2.7a16.72,16.72,0,0,0,5.147-5.147l-2.7-2.008a13.235,13.235,0,0,0,1.557-3.753l3.33.487a16.325,16.325,0,0,0,0-7.279l-3.33.487A13.232,13.232,0,0,0,2202.479,4503.456Zm-11.365,15.75a8.844,8.844,0,1,1,8.844-8.845A8.844,8.844,0,0,1,2191.114,4519.206Z" transform="translate(-14.581 -422.144)" fill="#738598" opacity="0.1"/>
    <g id="Group_1496" data-name="Group 1496" transform="translate(2197.189 3978.885)" opacity="0.1">
      <g id="Group_1495" data-name="Group 1495" transform="translate(0)">
        <rect id="Rectangle_518" data-name="Rectangle 518" width="34.347" height="22.331" transform="translate(7.061 7.965) rotate(18.432)" fill="#3c415e"/>
        <path id="Path_13627" data-name="Path 13627" d="M2361.644,4189.681l-32.585-10.86,20.757-7.964Z" transform="translate(-2321.998 -4170.856)" fill="#3c415e"/>
        <rect id="Rectangle_519" data-name="Rectangle 519" width="27.496" height="23.226" transform="translate(10.77 7.374) rotate(18.433)" fill="#fff"/>
        <path id="Path_13628" data-name="Path 13628" d="M2311.522,4198.6l-7.061,21.186,19.573-4.414Z" transform="translate(-2304.461 -4190.639)" fill="#738598"/>
        <path id="Path_13629" data-name="Path 13629" d="M2392.723,4236.438l-7.061,21.186-13.012-15.274Z" transform="translate(-2353.077 -4217.613)" fill="#738598"/>
        <path id="Path_13630" data-name="Path 13630" d="M2337.046,4263.485l-32.585-10.86,20.757-7.966Z" transform="translate(-2304.461 -4223.474)" fill="#3c415e"/>
      </g>
      <path id="Path_13631" data-name="Path 13631" d="M2304.461,4252.081l5.158-2.073,5.171-2.038,5.18-2.015,5.183-2.005.137-.053.077.125,2.944,4.713c.979,1.574,1.969,3.14,2.936,4.72l2.915,4.732,2.883,4.753-3.031-4.66-3-4.68c-1-1.557-1.985-3.128-2.978-4.692l-2.971-4.7.215.071-5.2,1.976-5.2,1.967-5.207,1.946Z" transform="translate(-2304.461 -4222.931)" fill="#3c415e"/>
    </g>
    <g id="Group_1499" data-name="Group 1499" transform="translate(2389.712 3978.424)" opacity="0.1">
      <g id="Group_1497" data-name="Group 1497" transform="translate(0 25.76)">
        <path id="Path_13632" data-name="Path 13632" d="M2979.869,4261.345a2.353,2.353,0,1,1-2.351-2.352A2.352,2.352,0,0,1,2979.869,4261.345Z" transform="translate(-2975.164 -4258.993)" fill="#738598"/>
      </g>
      <g id="Group_1498" data-name="Group 1498" transform="translate(0 0)">
        <path id="Path_13633" data-name="Path 13633" d="M2975.164,4233.139a9.843,9.843,0,0,1,9.832,9.831h3.219a13.066,13.066,0,0,0-13.052-13.051Z" transform="translate(-2975.164 -4212.504)" fill="#738598"/>
        <path id="Path_13634" data-name="Path 13634" d="M2975.164,4202.788A18.236,18.236,0,0,1,2993.38,4221v0h3.679v0a21.919,21.919,0,0,0-21.895-21.894Z" transform="translate(-2975.164 -4190.538)" fill="#738598"/>
        <path id="Path_13635" data-name="Path 13635" d="M2975.164,4173.211a26.535,26.535,0,0,1,26.505,26.5h3.961a30.5,30.5,0,0,0-30.467-30.465Z" transform="translate(-2975.164 -4169.25)" fill="#738598"/>
      </g>
    </g>
    <g id="Group_1502" data-name="Group 1502" transform="translate(2441.11 4037.232)" opacity="0.1">
      <g id="Group_1500" data-name="Group 1500" transform="translate(8.18 18.935)">
        <path id="Path_13636" data-name="Path 13636" d="M3214.4,4459.405v-6.953h-3.169a13.067,13.067,0,0,0-1.256-3.022l2.245-2.243-4.916-4.917-2.245,2.245a13.043,13.043,0,0,0-3.02-1.255v-3.17h-6.952v3.17a13.026,13.026,0,0,0-3.022,1.255l-2.244-2.245-4.916,4.917,2.244,2.243a13.078,13.078,0,0,0-1.256,3.022h-3.17v6.953h3.17a13.062,13.062,0,0,0,1.256,3.021l-2.244,2.245,4.916,4.917,2.244-2.246a13.007,13.007,0,0,0,3.022,1.256v3.17h6.952v-3.17a13.024,13.024,0,0,0,3.02-1.256l2.245,2.246,4.916-4.917-2.245-2.245a13.051,13.051,0,0,0,1.256-3.021Zm-15.839,2.71a6.187,6.187,0,1,1,6.187-6.187A6.194,6.194,0,0,1,3198.556,4462.116Z" transform="translate(-3182.717 -4440.09)" fill="#738598"/>
      </g>
      <g id="Group_1501" data-name="Group 1501">
        <path id="Path_13637" data-name="Path 13637" d="M3166.855,4394.844v-2.071a8.649,8.649,0,0,0,1.977-.824l1.467,1.469,3.216-3.215-1.467-1.468a8.605,8.605,0,0,0,.821-1.975h2.073v-4.549h-2.073a8.569,8.569,0,0,0-.821-1.975l1.467-1.469-3.216-3.215-1.469,1.468a8.511,8.511,0,0,0-1.975-.821v-2.073h-4.548v2.073a8.539,8.539,0,0,0-1.976.821l-1.467-1.468-3.217,3.215,1.468,1.468a8.584,8.584,0,0,0-.821,1.976h-2.073v4.549h2.073a8.594,8.594,0,0,0,.821,1.975l-1.468,1.468,3.217,3.215,1.467-1.469a8.634,8.634,0,0,0,1.976.824v2.071Zm-6.321-10.359a4.047,4.047,0,1,1,4.047,4.045A4.052,4.052,0,0,1,3160.535,4384.485Z" transform="translate(-3154.221 -4374.125)" fill="#738598"/>
      </g>
    </g>
    <g id="Group_1504" data-name="Group 1504" transform="translate(2448.428 3973.654)" opacity="0.1">
      <path id="Path_13638" data-name="Path 13638" d="M3179.716,4165.064l3.509,10.942h19.762l-3.509-10.942Z" transform="translate(-3179.716 -4161.497)" fill="#738598"/>
      <g id="Group_1503" data-name="Group 1503" transform="translate(3.508)">
        <path id="Path_13639" data-name="Path 13639" d="M3208.192,4155.549h.476l.145.456,2.887,9v-10.944h-15.615l-.845-1.426h-3.3v2.914Z" transform="translate(-3191.938 -4152.636)" fill="#738598"/>
      </g>
    </g>
    <path id="Path_13640" data-name="Path 13640" d="M2674.322,3929.513l-17.969-27.92-17.657,27.92h9.952v23.09h15.726v-23.09Z" transform="translate(-345.566)" fill="#738598" opacity="0.1"/>
    <g id="Group_1505" data-name="Group 1505" transform="translate(2372.579 3917.768)" opacity="0.1">
      <path id="Path_13641" data-name="Path 13641" d="M2915.475,3975.979l20.885,10.595,18.05-28.633Z" transform="translate(-2915.475 -3957.941)" fill="#738598"/>
      <path id="Path_13642" data-name="Path 13642" d="M2974.387,3957.941l-30.893,22.118v11.7l5.32-9Z" transform="translate(-2935.451 -3957.941)" fill="#04659b"/>
      <path id="Path_13643" data-name="Path 13643" d="M2974.387,3957.941l-30.893,22.118v11.7l5.32-9Z" transform="translate(-2935.451 -3957.941)" fill="#3c415e"/>
    </g>
  </g>
</svg>
